<?xml version="1.0" encoding="UTF-8"?>
<svg version="1.1" xmlns="http://www.w3.org/2000/svg" width="512" height="512">
<path d="M0 0 C0.80309601 -0.01084122 1.60619202 -0.02168243 2.43362427 -0.03285217 C5.02101715 -0.05912447 7.60779294 -0.06544826 10.1953125 -0.06640625 C11.07638672 -0.06946777 11.95746094 -0.0725293 12.86523438 -0.07568359 C28.50715735 -0.08988287 43.10274908 1.5828232 58.3203125 5.37109375 C58.3203125 6.03109375 58.3203125 6.69109375 58.3203125 7.37109375 C61.2903125 7.70109375 64.2603125 8.03109375 67.3203125 8.37109375 C67.3203125 9.03109375 67.3203125 9.69109375 67.3203125 10.37109375 C68.3928125 10.51546875 69.4653125 10.65984375 70.5703125 10.80859375 C73.23694199 11.20858817 75.73430979 11.64701299 78.3203125 12.37109375 C78.3203125 13.03109375 78.3203125 13.69109375 78.3203125 14.37109375 C79.526875 14.49484375 79.526875 14.49484375 80.7578125 14.62109375 C85.27965455 15.5730605 89.16733951 17.38689554 93.3203125 19.37109375 C93.3203125 20.03109375 93.3203125 20.69109375 93.3203125 21.37109375 C94.9703125 21.70109375 96.6203125 22.03109375 98.3203125 22.37109375 C98.3203125 23.03109375 98.3203125 23.69109375 98.3203125 24.37109375 C100.6303125 25.03109375 102.9403125 25.69109375 105.3203125 26.37109375 C105.3203125 27.03109375 105.3203125 27.69109375 105.3203125 28.37109375 C106.6403125 28.70109375 107.9603125 29.03109375 109.3203125 29.37109375 C109.3203125 30.03109375 109.3203125 30.69109375 109.3203125 31.37109375 C110.4340625 31.77328125 110.4340625 31.77328125 111.5703125 32.18359375 C114.21093199 33.32386126 116.17584094 34.46489681 118.3203125 36.37109375 C118.3203125 37.03109375 118.3203125 37.69109375 118.3203125 38.37109375 C119.34125 38.68046875 119.34125 38.68046875 120.3828125 38.99609375 C126.75234623 41.97757762 130.89410991 47.03695216 135.3203125 52.37109375 C136.83625 53.60859375 136.83625 53.60859375 138.3828125 54.87109375 C141.43431074 57.46811353 143.17688641 60.01305955 145.3203125 63.37109375 C146.20589844 64.23347656 146.20589844 64.23347656 147.109375 65.11328125 C149.9373238 68.00118656 152.22458737 71.15026046 154.5703125 74.43359375 C155.02921875 75.05814453 155.488125 75.68269531 155.9609375 76.32617188 C159.3203125 81.01030041 159.3203125 81.01030041 159.3203125 84.37109375 C159.9803125 84.37109375 160.6403125 84.37109375 161.3203125 84.37109375 C162.780941 87.01848291 163.3203125 88.26557709 163.3203125 91.37109375 C163.9803125 91.37109375 164.6403125 91.37109375 165.3203125 91.37109375 C165.6503125 93.35109375 165.9803125 95.33109375 166.3203125 97.37109375 C166.9803125 97.37109375 167.6403125 97.37109375 168.3203125 97.37109375 C168.70703125 98.41007812 169.09375 99.4490625 169.4921875 100.51953125 C170.01818605 101.92840152 170.54423092 103.33725449 171.0703125 104.74609375 C171.34399658 105.4819873 171.61768066 106.21788086 171.8996582 106.97607422 C173.35059603 110.85860135 174.86630379 114.68932648 176.5078125 118.49609375 C178.63743079 123.68703834 179.64842286 129.06838161 180.70703125 134.5625 C181.03180027 137.26257498 181.03180027 137.26257498 182.3203125 138.37109375 C183.30710133 144.40146994 183.43283703 150.26976388 183.3203125 156.37109375 C183.9803125 156.37109375 184.6403125 156.37109375 185.3203125 156.37109375 C185.3203125 167.59109375 185.3203125 178.81109375 185.3203125 190.37109375 C184.6603125 190.37109375 184.0003125 190.37109375 183.3203125 190.37109375 C183.33191406 191.07234375 183.34351563 191.77359375 183.35546875 192.49609375 C183.41002434 198.23222477 183.17649627 203.69887628 182.3203125 209.37109375 C181.6603125 209.37109375 181.0003125 209.37109375 180.3203125 209.37109375 C179.9903125 212.67109375 179.6603125 215.97109375 179.3203125 219.37109375 C181.3003125 219.70109375 183.2803125 220.03109375 185.3203125 220.37109375 C185.3203125 221.03109375 185.3203125 221.69109375 185.3203125 222.37109375 C186.526875 222.55671875 186.526875 222.55671875 187.7578125 222.74609375 C188.6034375 222.95234375 189.4490625 223.15859375 190.3203125 223.37109375 C191.52304069 225.77655013 191.42102722 227.32106328 191.3828125 229.99609375 C191.37378906 230.81335938 191.36476563 231.630625 191.35546875 232.47265625 C191.33806641 233.41238281 191.33806641 233.41238281 191.3203125 234.37109375 C190.6603125 234.37109375 190.0003125 234.37109375 189.3203125 234.37109375 C189.3203125 235.03109375 189.3203125 235.69109375 189.3203125 236.37109375 C188.0003125 236.70109375 186.6803125 237.03109375 185.3203125 237.37109375 C185.3203125 238.03109375 185.3203125 238.69109375 185.3203125 239.37109375 C183.3403125 240.03109375 181.3603125 240.69109375 179.3203125 241.37109375 C179.3203125 242.03109375 179.3203125 242.69109375 179.3203125 243.37109375 C178.0003125 243.70109375 176.6803125 244.03109375 175.3203125 244.37109375 C175.3203125 245.03109375 175.3203125 245.69109375 175.3203125 246.37109375 C173.3403125 247.03109375 171.3603125 247.69109375 169.3203125 248.37109375 C169.3203125 249.03109375 169.3203125 249.69109375 169.3203125 250.37109375 C168.0003125 250.70109375 166.6803125 251.03109375 165.3203125 251.37109375 C165.3203125 252.03109375 165.3203125 252.69109375 165.3203125 253.37109375 C163.3403125 254.03109375 161.3603125 254.69109375 159.3203125 255.37109375 C159.3203125 256.03109375 159.3203125 256.69109375 159.3203125 257.37109375 C158.0003125 257.70109375 156.6803125 258.03109375 155.3203125 258.37109375 C155.3203125 259.03109375 155.3203125 259.69109375 155.3203125 260.37109375 C152.33436826 261.86406587 149.61177626 261.48864603 146.3203125 261.37109375 C145.6603125 261.04109375 145.0003125 260.71109375 144.3203125 260.37109375 C144.3203125 259.71109375 144.3203125 259.05109375 144.3203125 258.37109375 C143.6603125 258.37109375 143.0003125 258.37109375 142.3203125 258.37109375 C141.24442395 255.14342809 141.03552885 252.45209445 140.8203125 249.05859375 C140.7378125 247.81851563 140.6553125 246.5784375 140.5703125 245.30078125 C140.40364583 242.68098958 140.23697917 240.06119792 140.0703125 237.44140625 C139.9878125 236.20132813 139.9053125 234.96125 139.8203125 233.68359375 C139.748125 232.54535156 139.6759375 231.40710938 139.6015625 230.234375 C139.420425 227.30147512 139.420425 227.30147512 138.3203125 224.37109375 C138.24009251 222.96284482 138.21265273 221.55112144 138.22265625 220.140625 C138.22587891 219.33818359 138.22910156 218.53574219 138.23242188 217.70898438 C138.24080078 216.87560547 138.24917969 216.04222656 138.2578125 215.18359375 C138.26232422 214.33861328 138.26683594 213.49363281 138.27148438 212.62304688 C138.28325847 210.5390322 138.3011936 208.45505398 138.3203125 206.37109375 C143.48715479 203.27864296 143.48715479 203.27864296 147.27734375 203.69921875 C148.21964844 204.0034375 149.16195312 204.30765625 150.1328125 204.62109375 C151.08800781 204.915 152.04320312 205.20890625 153.02734375 205.51171875 C155.3203125 206.37109375 155.3203125 206.37109375 156.3203125 207.37109375 C156.3203125 206.38109375 156.3203125 205.39109375 156.3203125 204.37109375 C156.9803125 204.37109375 157.6403125 204.37109375 158.3203125 204.37109375 C158.35789673 203.43257568 158.35789673 203.43257568 158.39624023 202.47509766 C158.51206523 199.64854756 158.63485235 196.82234206 158.7578125 193.99609375 C158.79712891 193.01125 158.83644531 192.02640625 158.87695312 191.01171875 C158.91884766 190.07070313 158.96074219 189.1296875 159.00390625 188.16015625 C159.04056396 187.29084473 159.07722168 186.4215332 159.11499023 185.52587891 C159.3203125 183.37109375 159.3203125 183.37109375 160.3203125 181.37109375 C160.41822273 178.67280301 160.459375 176.00624914 160.4453125 173.30859375 C160.44917969 172.56287109 160.45304688 171.81714844 160.45703125 171.04882812 C160.79242402 167.41192051 160.79242402 167.41192051 159.3203125 164.37109375 C159.16345001 162.81160833 159.06954611 161.24566707 159.00390625 159.6796875 C158.94106445 158.26333008 158.94106445 158.26333008 158.87695312 156.81835938 C158.83763672 155.82513672 158.79832031 154.83191406 158.7578125 153.80859375 C158.71462891 152.81150391 158.67144531 151.81441406 158.62695312 150.78710938 C158.52050952 148.31525225 158.41849322 145.84329065 158.3203125 143.37109375 C157.6603125 143.37109375 157.0003125 143.37109375 156.3203125 143.37109375 C156.12695312 142.34628906 155.93359375 141.32148438 155.734375 140.265625 C155.47161387 138.90489774 155.20857852 137.54422342 154.9453125 136.18359375 C154.81898438 135.51005859 154.69265625 134.83652344 154.5625 134.14257812 C153.98522904 131.18406446 153.34542499 128.43351877 152.21875 125.6328125 C151.3203125 123.37109375 151.3203125 123.37109375 151.3203125 119.37109375 C150.6603125 119.37109375 150.0003125 119.37109375 149.3203125 119.37109375 C148.6603125 116.07109375 148.0003125 112.77109375 147.3203125 109.37109375 C146.6603125 109.37109375 146.0003125 109.37109375 145.3203125 109.37109375 C144.98257813 108.58863281 144.64484375 107.80617188 144.296875 107 C143.85085938 105.98808594 143.40484375 104.97617188 142.9453125 103.93359375 C142.50445312 102.92425781 142.06359375 101.91492188 141.609375 100.875 C140.56954964 98.24965828 140.56954964 98.24965828 138.3203125 97.37109375 C137.31554493 95.37348464 136.31661223 93.37293961 135.3203125 91.37109375 C133.76043047 88.93305084 132.07932889 86.59046261 130.3828125 84.24609375 C129.95291016 83.63894531 129.52300781 83.03179687 129.08007812 82.40625 C126.7084053 79.10246297 124.26730633 76.19268359 121.3203125 73.37109375 C120.11375 71.88609375 120.11375 71.88609375 118.8828125 70.37109375 C116.51166591 67.59511725 114.22808085 65.55192001 111.3203125 63.37109375 C109.61736463 62.08442203 107.94085062 60.76012642 106.3203125 59.37109375 C106.3203125 58.71109375 106.3203125 58.05109375 106.3203125 57.37109375 C104.6703125 56.71109375 103.0203125 56.05109375 101.3203125 55.37109375 C101.3203125 54.71109375 101.3203125 54.05109375 101.3203125 53.37109375 C100.60488281 53.10296875 99.88945312 52.83484375 99.15234375 52.55859375 C96.27902311 51.35378068 93.68693624 49.95872263 91.0078125 48.37109375 C90.12480469 47.85546875 89.24179687 47.33984375 88.33203125 46.80859375 C87.66816406 46.33421875 87.00429688 45.85984375 86.3203125 45.37109375 C86.3203125 44.71109375 86.3203125 44.05109375 86.3203125 43.37109375 C85.6809375 43.28859375 85.0415625 43.20609375 84.3828125 43.12109375 C80.11489733 42.07589003 76.28923583 40.23017549 72.3203125 38.37109375 C72.3203125 37.71109375 72.3203125 37.05109375 72.3203125 36.37109375 C71.3096875 36.26796875 70.2990625 36.16484375 69.2578125 36.05859375 C65.21279045 35.35232006 62.05755137 34.0320888 58.3203125 32.37109375 C55.54142637 31.67968853 55.54142637 31.67968853 53.3203125 31.37109375 C53.3203125 30.71109375 53.3203125 30.05109375 53.3203125 29.37109375 C52.2684375 29.29761719 52.2684375 29.29761719 51.1953125 29.22265625 C42.50188689 28.53757651 42.50188689 28.53757651 38.4453125 27.37109375 C23.6879265 23.40023085 6.14923649 24.68687392 -8.9296875 26.24609375 C-10.07171631 26.36368042 -10.07171631 26.36368042 -11.23681641 26.48364258 C-16.19010476 27.05475464 -20.85338074 28.12826797 -25.6796875 29.37109375 C-28.6796875 29.49609375 -28.6796875 29.49609375 -30.6796875 29.37109375 C-30.6796875 30.03109375 -30.6796875 30.69109375 -30.6796875 31.37109375 C-31.78376953 31.66113281 -31.78376953 31.66113281 -32.91015625 31.95703125 C-33.88597656 32.21742187 -34.86179688 32.4778125 -35.8671875 32.74609375 C-36.83011719 33.00132813 -37.79304688 33.2565625 -38.78515625 33.51953125 C-41.67735333 34.31577763 -41.67735333 34.31577763 -44.35546875 35.47265625 C-46.6796875 36.37109375 -46.6796875 36.37109375 -49.6796875 36.37109375 C-49.6796875 37.03109375 -49.6796875 37.69109375 -49.6796875 38.37109375 C-59.08971028 42.77883862 -59.08971028 42.77883862 -63.6796875 43.37109375 C-63.6796875 44.03109375 -63.6796875 44.69109375 -63.6796875 45.37109375 C-66.1546875 45.86609375 -66.1546875 45.86609375 -68.6796875 46.37109375 C-68.6796875 47.03109375 -68.6796875 47.69109375 -68.6796875 48.37109375 C-70.6596875 49.03109375 -72.6396875 49.69109375 -74.6796875 50.37109375 C-74.6796875 51.03109375 -74.6796875 51.69109375 -74.6796875 52.37109375 C-83.25111607 53.65680804 -83.25111607 53.65680804 -86.6796875 52.37109375 C-86.6796875 51.71109375 -86.6796875 51.05109375 -86.6796875 50.37109375 C-87.2778125 50.35046875 -87.8759375 50.32984375 -88.4921875 50.30859375 C-90.6796875 49.37109375 -90.6796875 49.37109375 -92.4921875 46.05859375 C-93.97393529 41.45737694 -93.97393529 41.45737694 -92.6796875 38.37109375 C-92.4115625 37.31921875 -92.1434375 36.26734375 -91.8671875 35.18359375 C-90.6796875 32.37109375 -90.6796875 32.37109375 -88.5546875 31.49609375 C-87.9359375 31.45484375 -87.3171875 31.41359375 -86.6796875 31.37109375 C-86.6796875 30.71109375 -86.6796875 30.05109375 -86.6796875 29.37109375 C-85.3596875 29.04109375 -84.0396875 28.71109375 -82.6796875 28.37109375 C-82.6796875 27.71109375 -82.6796875 27.05109375 -82.6796875 26.37109375 C-80.3696875 25.71109375 -78.0596875 25.05109375 -75.6796875 24.37109375 C-75.6796875 23.71109375 -75.6796875 23.05109375 -75.6796875 22.37109375 C-74.0296875 22.04109375 -72.3796875 21.71109375 -70.6796875 21.37109375 C-70.6796875 20.71109375 -70.6796875 20.05109375 -70.6796875 19.37109375 C-68.74500808 18.53123291 -66.80683621 17.69941348 -64.8671875 16.87109375 C-63.78824219 16.40703125 -62.70929688 15.94296875 -61.59765625 15.46484375 C-58.6796875 14.37109375 -58.6796875 14.37109375 -55.6796875 14.37109375 C-55.6796875 13.71109375 -55.6796875 13.05109375 -55.6796875 12.37109375 C-51.80284663 11.17821964 -48.76346827 10.37109375 -44.6796875 10.37109375 C-44.6796875 9.71109375 -44.6796875 9.05109375 -44.6796875 8.37109375 C-40.2246875 7.87609375 -40.2246875 7.87609375 -35.6796875 7.37109375 C-35.6796875 6.71109375 -35.6796875 6.05109375 -35.6796875 5.37109375 C-34.48472656 5.17773438 -33.28976563 4.984375 -32.05859375 4.78515625 C-30.45310314 4.5222689 -28.84763562 4.25924049 -27.2421875 3.99609375 C-26.45908203 3.86976562 -25.67597656 3.7434375 -24.86914062 3.61328125 C-24.08603516 3.484375 -23.30292969 3.35546875 -22.49609375 3.22265625 C-21.43563843 3.04984131 -21.43563843 3.04984131 -20.35375977 2.87353516 C-18.78866039 2.5794628 -17.22712001 2.2611698 -15.67962646 1.88529968 C-10.38750382 0.61003728 -5.43671967 0.04071883 0 0 Z " fill="#5FB7FF" transform="translate(244.6796875,81.62890625)"/>
<path d="M0 0 C2.49412016 3.74118025 2.08341808 5.27515993 1.6875 9.6875 C1.57921875 10.93144531 1.4709375 12.17539063 1.359375 13.45703125 C0.9678687 17.31677269 0.53787539 21.1580329 0 25 C-0.66 25 -1.32 25 -2 25 C-2.33 30.28 -2.66 35.56 -3 41 C-3.66 41 -4.32 41 -5 41 C-5.06058594 41.99 -5.12117188 42.98 -5.18359375 44 C-6.40139857 63.40139857 -6.40139857 63.40139857 -8 65 C-8.26309771 67.28602679 -8.46071865 69.5797548 -8.625 71.875 C-8.72039062 73.13054687 -8.81578125 74.38609375 -8.9140625 75.6796875 C-9.18869107 79.00170652 -9.18869107 79.00170652 -8 82 C-6.89599854 82.02505615 -5.79199707 82.0501123 -4.65454102 82.07592773 C-0.52260549 82.17075363 3.60919102 82.27078457 7.7409668 82.37231445 C9.52250902 82.41538116 11.30408507 82.45707346 13.08569336 82.49731445 C15.66009677 82.55570893 18.23433432 82.6191963 20.80859375 82.68359375 C21.59334579 82.70030624 22.37809784 82.71701874 23.18663025 82.73423767 C28.50726008 82.87385076 33.71636381 83.35363441 39 84 C39 84.66 39 85.32 39 86 C39.99 86.33 40.98 86.66 42 87 C43.58939347 90.17878694 43.41576711 92.4956772 43 96 C40.3125 98.5625 40.3125 98.5625 38.64453125 99.75390625 C36.70139463 101.12889143 36.70139463 101.12889143 34.5 104 C31.9107857 107.10705716 29.10063514 109.41613738 26 112 C24.2543051 113.94246398 22.64333993 115.96744798 21 118 C18.8125 120.375 18.8125 120.375 17 122 C16.34 122 15.68 122 15 122 C14.505 123.485 14.505 123.485 14 125 C13.34 125 12.68 125 12 125 C11.34 126.32 10.68 127.64 10 129 C9.34 129 8.68 129 8 129 C7.67 129.99 7.34 130.98 7 132 C6.34 132 5.68 132 5 132 C4.7525 132.556875 4.505 133.11375 4.25 133.6875 C1.42923318 138.90591861 -2.44921424 142.28507285 -7 146 C-8.68711423 147.6459651 -10.3545622 149.31237149 -12 151 C-13.2375 152.2065625 -13.2375 152.2065625 -14.5 153.4375 C-17.07363115 155.9980505 -17.07363115 155.9980505 -19.4375 159 C-22.06375983 162.07464566 -24.89948368 164.4162364 -28 167 C-28.825 167.99 -29.65 168.98 -30.5 170 C-33.0892143 173.10705716 -35.89936486 175.41613738 -39 178 C-39.93860251 179.08558147 -40.85607847 180.18983972 -41.75 181.3125 C-42.4925 182.199375 -43.235 183.08625 -44 184 C-44.66 184 -45.32 184 -46 184 C-46.33 184.99 -46.66 185.98 -47 187 C-48.9375 189.1875 -48.9375 189.1875 -51 191 C-51.66 191 -52.32 191 -53 191 C-53 191.66 -53 192.32 -53 193 C-56.18666086 194.59333043 -59.53199853 194.38375426 -63 194 C-65.58204086 192.50075047 -65.88582965 191.42406131 -66.65625 188.5625 C-67.13499527 183.60095808 -66.3429823 179.02709306 -65.5625 174.125 C-65.41490234 173.15046875 -65.26730469 172.1759375 -65.11523438 171.171875 C-64.75174111 168.77985481 -64.37978257 166.38947858 -64 164 C-63.34 164 -62.68 164 -62 164 C-62.020625 162.824375 -62.04125 161.64875 -62.0625 160.4375 C-62.0625 150.0625 -62.0625 150.0625 -60 148 C-59.71497167 146.38235232 -59.48555355 144.75481141 -59.28125 143.125 C-59.15363281 142.14015625 -59.02601563 141.1553125 -58.89453125 140.140625 C-58.76433594 139.10421875 -58.63414062 138.0678125 -58.5 137 C-58.24346032 134.95784256 -57.9832436 132.91614251 -57.71875 130.875 C-57.60466797 129.96492187 -57.49058594 129.05484375 -57.37304688 128.1171875 C-57 126 -57 126 -56 125 C-55.73690229 122.71397321 -55.53928135 120.4202452 -55.375 118.125 C-55.27960938 116.86945313 -55.18421875 115.61390625 -55.0859375 114.3203125 C-54.81130893 110.99829348 -54.81130893 110.99829348 -56 108 C-56.57185028 108.00222061 -57.14370056 108.00444122 -57.73287964 108.00672913 C-63.66973243 108.02880483 -69.60657362 108.0439162 -75.54345703 108.05493164 C-77.76090976 108.05996909 -79.97835916 108.06679922 -82.19580078 108.07543945 C-85.37793805 108.08753072 -88.56003151 108.0932341 -91.7421875 108.09765625 C-92.73805878 108.10281754 -93.73393005 108.10797882 -94.75997925 108.11329651 C-96.14118454 108.11340981 -96.14118454 108.11340981 -97.55029297 108.11352539 C-98.3630368 108.115746 -99.17578064 108.11796661 -100.01315308 108.12025452 C-102 108 -102 108 -104 107 C-104 106.34 -104 105.68 -104 105 C-104.99 104.67 -105.98 104.34 -107 104 C-107.125 97.375 -107.125 97.375 -106 94 C-104.328125 92.3515625 -104.328125 92.3515625 -102.25 90.625 C-98.18715738 87.17158378 -94.34055276 83.72974549 -91.0625 79.5 C-88.65085484 76.57679375 -85.9327108 74.39404964 -83 72 C-80.15993769 69.30194081 -77.56658849 66.50490618 -75.0625 63.5 C-72.33155599 60.2578793 -69.26369722 57.70817429 -66 55 C-65.175 54.01 -64.35 53.02 -63.5 52 C-60.91294664 48.89553597 -58.10278666 46.57465276 -55 44 C-54.34 43.175 -53.68 42.35 -53 41.5 C-51 39 -51 39 -48.0625 36.5625 C-44.9268956 34.09360369 -44.9268956 34.09360369 -42.5 31 C-39.91294664 27.89553597 -37.10278666 25.57465276 -34 23 C-33.34 22.175 -32.68 21.35 -32 20.5 C-30 18 -30 18 -27.0625 15.5625 C-23.93786005 12.94800535 -21.59536317 10.12774536 -19 7 C-17.35704805 5.63755204 -15.69175663 4.30135125 -14 3 C-12.948125 1.9171875 -12.948125 1.9171875 -11.875 0.8125 C-7.89848823 -3.03146138 -4.81332317 -1.75029933 0 0 Z " fill="#FEDF5A" transform="translate(288,159)"/>
<path d="M0 0 C7.45851528 -0.36681223 7.45851528 -0.36681223 9.9375 1.3125 C12.19498666 4.89791999 12.24738523 8.40144957 12.5 12.53125 C12.5825 13.81644531 12.665 15.10164062 12.75 16.42578125 C12.8759205 18.46657868 13.00045513 20.50745805 13.125 22.54833984 C13.24677872 24.52201129 13.37332473 26.49538677 13.5 28.46875 C13.60828125 30.23895508 13.60828125 30.23895508 13.71875 32.04492188 C13.89348595 35.055325 13.89348595 35.055325 15 38 C15.07973476 39.33525717 15.10771338 40.67412083 15.09765625 42.01171875 C15.09443359 42.76904297 15.09121094 43.52636719 15.08789062 44.30664062 C15.07532227 45.48516602 15.07532227 45.48516602 15.0625 46.6875 C15.05798828 47.48478516 15.05347656 48.28207031 15.04882812 49.10351562 C15.0370585 51.06904257 15.01912348 53.03453085 15 55 C14.34 55 13.68 55 13 55 C13 55.66 13 56.32 13 57 C10.01002175 58.49498913 7.29957225 58.11577446 4 58 C3.01 57.67 2.02 57.34 1 57 C1 56.34 1 55.68 1 55 C-0.32 55 -1.64 55 -3 55 C-3 55.99 -3 56.98 -3 58 C-3.66 58 -4.32 58 -5 58 C-5.03758423 58.94637329 -5.03758423 58.94637329 -5.07592773 59.91186523 C-5.19154137 62.75396825 -5.31442316 65.59571083 -5.4375 68.4375 C-5.47681641 69.43072266 -5.51613281 70.42394531 -5.55664062 71.44726562 C-5.59853516 72.39150391 -5.64042969 73.33574219 -5.68359375 74.30859375 C-5.72025146 75.18314209 -5.75690918 76.05769043 -5.79467773 76.95874023 C-6 79 -6 79 -7 80 C-7.10002455 82.65653443 -7.13877463 85.28129272 -7.125 87.9375 C-7.12886719 88.67935547 -7.13273437 89.42121094 -7.13671875 90.18554688 C-7.21739668 94.22322878 -7.21739668 94.22322878 -6 98 C-5.84824451 99.59262066 -5.75099675 101.19064856 -5.68359375 102.7890625 C-5.62075195 104.20058594 -5.62075195 104.20058594 -5.55664062 105.640625 C-5.51732422 106.62546875 -5.47800781 107.6103125 -5.4375 108.625 C-5.39431641 109.61757813 -5.35113281 110.61015625 -5.30664062 111.6328125 C-5.20038931 114.08839838 -5.09835036 116.54408703 -5 119 C-4.34 119 -3.68 119 -3 119 C-2.66223316 120.7491497 -2.32996329 122.49936145 -2 124.25 C-1.814375 125.22453125 -1.62875 126.1990625 -1.4375 127.203125 C-1 130 -1 130 -1 134 C-0.34 134 0.32 134 1 134 C3.10396411 139.93317878 4.75971762 145.82777121 6 152 C6.66 152 7.32 152 8 152 C8.33 153.98 8.66 155.96 9 158 C9.66 158 10.32 158 11 158 C11.66 160.31 12.32 162.62 13 165 C13.66 165 14.32 165 15 165 C19.42857143 172.42857143 19.42857143 172.42857143 20 176 C20.66 176 21.32 176 22 176 C23.2890625 177.4609375 23.2890625 177.4609375 24.625 179.375 C25.07101563 180.00148438 25.51703125 180.62796875 25.9765625 181.2734375 C27 183 27 183 27 185 C27.88945312 185.38671875 27.88945312 185.38671875 28.796875 185.78125 C31.17660965 187.09769895 32.50978792 188.42580782 34.25 190.5 C34.77078125 191.1084375 35.2915625 191.716875 35.828125 192.34375 C37 194 37 194 37 196 C37.5775 196.268125 38.155 196.53625 38.75 196.8125 C41.05550043 198.02929189 43.02056192 199.30333879 45 201 C45 201.66 45 202.32 45 203 C45.598125 203.103125 46.19625 203.20625 46.8125 203.3125 C49.30869017 204.09701691 50.25731865 205.09889308 52 207 C52.66 207.33 53.32 207.66 54 208 C54 208.66 54 209.32 54 210 C55.32 210.33 56.64 210.66 58 211 C58 211.66 58 212.32 58 213 C60.31 213.66 62.62 214.32 65 215 C65 215.66 65 216.32 65 217 C66.65 217.33 68.3 217.66 70 218 C70 218.66 70 219.32 70 220 C71.010625 220.268125 72.02125 220.53625 73.0625 220.8125 C76.87327442 221.8935156 80.38875208 223.37862338 84 225 C84 225.66 84 226.32 84 227 C85.4540625 227.1546875 85.4540625 227.1546875 86.9375 227.3125 C90.75953994 227.84634768 94.21291158 229.02625749 97.84375 230.30078125 C100.52894667 231.17152437 103.20362496 231.64149038 106 232 C106 232.66 106 233.32 106 234 C106.91523438 234.06058594 107.83046875 234.12117187 108.7734375 234.18359375 C109.96195313 234.26738281 111.15046875 234.35117187 112.375 234.4375 C114.15003906 234.55931641 114.15003906 234.55931641 115.9609375 234.68359375 C119 235 119 235 121 236 C136.90735903 238.65122651 155.03438713 237.99379425 170.7109375 234.40234375 C173.18149443 233.9680991 175.49658422 233.93365506 178 234 C178 233.34 178 232.68 178 232 C178.96421875 231.80664062 179.9284375 231.61328125 180.921875 231.4140625 C182.18515625 231.15367187 183.4484375 230.89328125 184.75 230.625 C186.00296875 230.36976563 187.2559375 230.11453125 188.546875 229.8515625 C191.868404 229.16679742 191.868404 229.16679742 194.203125 227.8984375 C196 227 196 227 200 227 C200 226.34 200 225.68 200 225 C201.95649397 224.16235732 203.91525556 223.33000941 205.875 222.5 C206.96554687 222.0359375 208.05609375 221.571875 209.1796875 221.09375 C212 220 212 220 214 220 C214 219.34 214 218.68 214 218 C215.62249941 217.16180842 217.24808497 216.3295884 218.875 215.5 C219.77992188 215.0359375 220.68484375 214.571875 221.6171875 214.09375 C224 213 224 213 226 213 C226 212.34 226 211.68 226 211 C227.65 210.34 229.3 209.68 231 209 C231 208.67 231 208.34 231 208 C236.625 207.75 236.625 207.75 240 210 C240.66 210.33 241.32 210.66 242 211 C242 211.66 242 212.32 242 213 C242.66 213 243.32 213 244 213 C247.03867403 218.22651934 247.03867403 218.22651934 246.875 221.5 C244.09631728 229.43909348 244.09631728 229.43909348 240.3125 231.375 C239.549375 231.58125 238.78625 231.7875 238 232 C238 232.66 238 233.32 238 234 C237.401875 234.28875 236.80375 234.5775 236.1875 234.875 C233.80672208 236.04742026 233.80672208 236.04742026 231 238 C229.65674577 238.72881517 228.30183563 239.43645678 226.9375 240.125 C226.24527344 240.47820312 225.55304688 240.83140625 224.83984375 241.1953125 C223 242 223 242 221 242 C221 242.66 221 243.32 221 244 C216.05 245.98 211.1 247.96 206 250 C206 250.33 206 250.66 206 251 C205.20335937 251.19335938 204.40671875 251.38671875 203.5859375 251.5859375 C197.01674708 253.18738697 197.01674708 253.18738697 190.5625 255.1875 C187.89793488 256.03236211 185.77707279 256.16335722 183 256 C183 256.66 183 257.32 183 258 C156.86517615 263.38069903 127.13482385 263.38069903 101 258 C101 257.34 101 256.68 101 256 C100.3709375 255.96261719 99.741875 255.92523438 99.09375 255.88671875 C93.16199809 255.43111732 88.48835972 254.2710454 83 252 C81.67203709 251.64587656 80.3396682 251.30688435 79 251 C79 250.34 79 249.68 79 249 C76.69 248.67 74.38 248.34 72 248 C72 247.34 72 246.68 72 246 C69.03 245.34 66.06 244.68 63 244 C63 243.34 63 242.68 63 242 C61.700625 241.5978125 61.700625 241.5978125 60.375 241.1875 C57.08208036 240.02888013 54.08872125 238.61790161 51 237 C51 236.34 51 235.68 51 235 C49.35 234.67 47.7 234.34 46 234 C46 233.34 46 232.68 46 232 C45.030625 231.71125 44.06125 231.4225 43.0625 231.125 C40 230 40 230 39 228 C38.01 227.67 37.02 227.34 36 227 C34.31237149 225.3545622 32.6459651 223.68711423 31 222 C29.515 221.01 29.515 221.01 28 220 C28 219.34 28 218.68 28 218 C27.01 217.67 26.02 217.34 25 217 C25 216.34 25 215.68 25 215 C24.29875 214.814375 23.5975 214.62875 22.875 214.4375 C18.95864972 212.47932486 16.4661136 209.59323769 14 206 C14 205.34 14 204.68 14 204 C13.01 203.67 12.02 203.34 11 203 C9.6459068 201.01399663 8.31542376 199.01182457 7 197 C6.23816406 196.26394531 5.47632813 195.52789062 4.69140625 194.76953125 C1.57742162 191.5651552 -0.76084107 188.17110383 -3.1875 184.4375 C-3.62513672 183.77814453 -4.06277344 183.11878906 -4.51367188 182.43945312 C-10 174.10526002 -10 174.10526002 -10 170 C-10.66 170 -11.32 170 -12 170 C-12.33 168.35 -12.66 166.7 -13 165 C-13.66 165 -14.32 165 -15 165 C-15.84161854 162.91999989 -16.67300763 160.83585854 -17.5 158.75 C-17.9640625 157.58984375 -18.428125 156.4296875 -18.90625 155.234375 C-20 152 -20 152 -20 148 C-20.66 148 -21.32 148 -22 148 C-24.74341572 139.973914 -26.65954675 132.49430869 -27 124 C-27.66 124 -28.32 124 -29 124 C-29.13277344 122.71222656 -29.26554687 121.42445313 -29.40234375 120.09765625 C-29.58049899 118.41924638 -29.75889692 116.74086227 -29.9375 115.0625 C-30.02451172 114.21236328 -30.11152344 113.36222656 -30.20117188 112.48632812 C-30.28818359 111.67744141 -30.37519531 110.86855469 -30.46484375 110.03515625 C-30.543396 109.2862915 -30.62194824 108.53742676 -30.70288086 107.76586914 C-30.8280738 105.97859987 -30.8280738 105.97859987 -32 105 C-32.10082764 102.56339554 -32.13972603 100.15575299 -32.1328125 97.71875 C-32.13376923 96.99006714 -32.13472595 96.26138428 -32.13571167 95.51062012 C-32.13639335 93.9672029 -32.13453988 92.42378283 -32.13037109 90.88037109 C-32.12502262 88.510026 -32.13031642 86.13987041 -32.13671875 83.76953125 C-32.13605797 82.27343708 -32.1347768 80.77734303 -32.1328125 79.28125 C-32.13483673 78.56771362 -32.13686096 77.85417725 -32.13894653 77.11901855 C-32.11495191 72.11495191 -32.11495191 72.11495191 -31 71 C-30.54973171 67.295692 -30.18053077 63.59236408 -29.83789062 59.87695312 C-29.37912551 55.31541059 -28.63734921 51.32023466 -27 47 C-26.65023242 45.67088318 -26.30903983 44.33917261 -26 43 C-26.99 43 -27.98 43 -29 43 C-29 42.34 -29 41.68 -29 41 C-29.928125 40.896875 -30.85625 40.79375 -31.8125 40.6875 C-35.16592025 39.96421328 -36.02538331 39.67983693 -38 37 C-38.29296875 34.51953125 -38.29296875 34.51953125 -38.1875 31.8125 C-38.16042969 30.91144531 -38.13335937 30.01039063 -38.10546875 29.08203125 C-38.07066406 28.39496094 -38.03585938 27.70789063 -38 27 C-36.68 26.67 -35.36 26.34 -34 26 C-34 25.34 -34 24.68 -34 24 C-32.3203125 22.7109375 -32.3203125 22.7109375 -30.125 21.375 C-29.40570313 20.92898437 -28.68640625 20.48296875 -27.9453125 20.0234375 C-26 19 -26 19 -24 19 C-24 18.34 -24 17.68 -24 17 C-22.3203125 15.7109375 -22.3203125 15.7109375 -20.125 14.375 C-19.40570313 13.92898437 -18.68640625 13.48296875 -17.9453125 13.0234375 C-16 12 -16 12 -14 12 C-14 11.34 -14 10.68 -14 10 C-12.3203125 8.7109375 -12.3203125 8.7109375 -10.125 7.375 C-9.40570313 6.92898437 -8.68640625 6.48296875 -7.9453125 6.0234375 C-6 5 -6 5 -4 5 C-4 4.34 -4 3.68 -4 3 C-2.68 2.67 -1.36 2.34 0 2 C0 1.34 0 0.68 0 0 Z " fill="#0DD2B3" transform="translate(114,167)"/>
<path d="M0 0 C2.91556082 0.05009102 5.82848717 0.13057926 8.74291992 0.22607422 C10.25982422 0.24154297 10.25982422 0.24154297 11.80737305 0.25732422 C19.23199132 0.51249947 19.23199132 0.51249947 22.63745117 3.38232422 C23.98430858 6.21438693 24.32190628 7.43210142 23.80541992 10.47607422 C23.6997168 11.18505859 23.59401367 11.89404297 23.48510742 12.62451172 C23.05326876 14.55258011 22.52909049 16.46004744 21.96948242 18.35498047 C20.83605943 22.44126861 20.09565998 26.48129 19.43041992 30.66357422 C19.30223877 31.44861328 19.17405762 32.23365234 19.04199219 33.04248047 C18.25887542 37.88767747 17.54414903 42.73967914 16.86791992 47.60107422 C15.4637744 57.54425107 13.87221606 67.80067977 9.93041992 77.10107422 C8.44541992 77.59607422 8.44541992 77.59607422 6.93041992 78.10107422 C6.60041992 79.09107422 6.27041992 80.08107422 5.93041992 81.10107422 C3.99291992 83.28857422 3.99291992 83.28857422 1.93041992 85.10107422 C1.27041992 85.10107422 0.61041992 85.10107422 -0.06958008 85.10107422 C-0.06958008 85.76107422 -0.06958008 86.42107422 -0.06958008 87.10107422 C-3.25624094 88.69440465 -6.60157861 88.48482848 -10.06958008 88.10107422 C-12.65162094 86.60182469 -12.95540972 85.52513553 -13.72583008 82.66357422 C-14.20457535 77.7020323 -13.41256237 73.12816728 -12.63208008 68.22607422 C-12.48448242 67.25154297 -12.33688477 66.27701172 -12.18481445 65.27294922 C-11.82132119 62.88092903 -11.44936264 60.4905528 -11.06958008 58.10107422 C-10.40958008 58.10107422 -9.74958008 58.10107422 -9.06958008 58.10107422 C-9.09020508 56.92544922 -9.11083008 55.74982422 -9.13208008 54.53857422 C-9.13208008 44.16357422 -9.13208008 44.16357422 -7.06958008 42.10107422 C-6.78455175 40.48342654 -6.55513363 38.85588563 -6.35083008 37.22607422 C-6.22321289 36.24123047 -6.0955957 35.25638672 -5.96411133 34.24169922 C-5.83391602 33.20529297 -5.7037207 32.16888672 -5.56958008 31.10107422 C-5.3130404 29.05891678 -5.05282368 27.01721673 -4.78833008 24.97607422 C-4.67424805 24.06599609 -4.56016602 23.15591797 -4.44262695 22.21826172 C-4.06958008 20.10107422 -4.06958008 20.10107422 -3.06958008 19.10107422 C-2.80585922 16.8360051 -2.60854785 14.56304149 -2.44458008 12.28857422 C-2.34918945 11.04462891 -2.25379883 9.80068359 -2.15551758 8.51904297 C-2.08396294 5.67311993 -2.30449357 3.77887699 -3.06958008 1.10107422 C-2.06958008 0.10107422 -2.06958008 0.10107422 0 0 Z " fill="#FED25A" transform="translate(235.069580078125,264.89892578125)"/>
</svg>
